<svg width="44" height="35" viewBox="0 0 44 35" fill="none" xmlns="http://www.w3.org/2000/svg">
<path d="M29.0023 18.3C27.3357 17.5667 26.0357 16.4667 25.1023 15C24.169 13.5333 23.7023 11.8 23.7023 9.8C23.7023 6.93334 24.6023 4.6 26.4023 2.8C28.2023 1.06667 30.5023 0.200001 33.3023 0.200001C36.1023 0.200001 38.4357 1.1 40.3023 2.9C42.1023 4.7 43.0023 7 43.0023 9.8C43.0023 11.1333 42.8357 12.4667 42.5023 13.8C42.169 15.1333 41.4357 17.1333 40.3023 19.8L34.5023 34.2H24.6023L29.0023 18.3ZM5.40234 18.3C3.73567 17.5667 2.43567 16.4667 1.50234 15C0.569007 13.5333 0.102341 11.8 0.102341 9.8C0.102341 6.93334 1.00234 4.6 2.80234 2.8C4.60234 1.06667 6.90234 0.200001 9.70234 0.200001C12.5023 0.200001 14.8357 1.1 16.7023 2.9C18.5023 4.7 19.4023 7 19.4023 9.8C19.4023 11.1333 19.2357 12.4667 18.9023 13.8C18.569 15.1333 17.8357 17.1333 16.7023 19.8L10.9023 34.2H1.00234L5.40234 18.3Z" fill="#32E0C5"/>
</svg>
